<?xml version="1.0"?>
<svg version="1.1" xmlns="http://www.w3.org/2000/svg" width="519" height="36" style=""><path fill="#debe83" d="M20.83,15.69l2.31,0c2.86,0,4.84,1.21,4.84,3.806c0,1.914-0.902,3.08-2.64,3.63c2.068,0.594,3.146,1.826,3.146,3.52c0,3.234-2.156,4.554-5.72,4.554l-6.996,0l0-1.87l1.65-0.66l0-10.34l-1.65-0.66l0-1.87z M20.83,22.026l1.276,0c1.606,0,2.464-0.682,2.464-2.046c0-1.144-0.814-1.65-1.87-1.65l-1.87,0l0,3.696z M20.83,28.56l1.826,0c1.54,0,2.354-0.704,2.354-1.914c0-1.606-0.924-2.31-2.904-2.31l-1.276,0l0,4.224z M42.51122,25.986l-7.304,0c0.132,1.76,1.144,2.794,2.662,2.794c1.826,0,3.696-1.034,3.696-1.034l0.946,1.826s-2.2,1.848-5.016,1.848c-3.784,0-5.72-2.2-5.72-5.94c0-3.85,2.178-6.38,5.874-6.38c3.278,0,4.994,2.024,4.994,5.17c0,0.836-0.132,1.65-0.132,1.716z M35.25122,23.94l3.982,0c0-1.254-0.528-2.2-1.804-2.2c-1.232,0-2.002,0.902-2.178,2.2z M53.21444,31.2l-0.396-1.43s-1.694,1.65-3.564,1.65c-2.134,0-3.432-1.254-3.432-3.454c0-2.596,1.958-3.63,5.302-3.63l1.54,0l0-1.21c0-1.122-0.594-1.606-1.694-1.606c-1.122,0-1.936,0.33-1.936,0.33l-0.33,1.386l-1.98,0l-0.154-3.256s2.662-0.88,4.774-0.88c3.344,0,4.62,1.166,4.62,4.356l0,5.434l1.65,0.396l0,1.76z M52.66444,26.206l-1.254,0c-1.716,0-2.398,0.44-2.398,1.43c0,0.836,0.462,1.32,1.298,1.32c1.166,0,2.354-1.276,2.354-1.276l0-1.474z M69.81366,27.614l1.1,1.936c-0.55,0.484-2.266,1.87-4.73,1.87c-3.63,0-5.72-2.244-5.72-5.984c0-3.916,2.2-6.336,6.05-6.336c1.892,0,3.85,0.77,3.85,0.77l-0.11,3.608l-1.98,0l-0.308-1.562s-0.638-0.176-1.518-0.176c-1.584,0-2.574,1.056-2.574,3.256c0,2.398,0.924,3.784,2.75,3.784c1.54,0,2.508-0.77,3.19-1.166z M78.27288,14.15l0,6.446c0.638-0.528,2.068-1.496,3.696-1.496c2.244,0,3.454,1.496,3.454,3.96l0,5.83l1.54,0.55l0,1.76l-5.984,0l0-1.76l1.144-0.528l0-5.324c0-1.1-0.44-1.76-1.452-1.76c-1.232,0-2.398,1.166-2.398,1.166l0,5.896l1.166,0.55l0,1.76l-6.226,0l0-1.76l1.76-0.55l0-12.364l-1.76-0.44l0-1.76z M96.51132,31.2l0-1.87l1.65-0.66l0-10.34l-1.65-0.66l0-1.87l5.06-0.11l1.672,0c3.608,0,5.72,1.496,5.72,4.488c0,2.068-0.99,3.41-2.486,4.158c0.242,0.286,0.572,0.704,0.924,1.43l1.474,3.014l1.496,0.55l0,1.87l-4.07,0l-1.848-4.07c-0.748-1.672-0.946-2.024-2.112-2.024l-0.77,0l0,3.564l1.584,0.66l0,1.87l-6.644,0z M101.57132,22.796l1.254,0c1.738,0,2.75-0.836,2.75-2.31c0-1.254-0.836-2.156-2.2-2.156l-1.804,0l0,4.466z M123.62654,25.986l-7.304,0c0.132,1.76,1.144,2.794,2.662,2.794c1.826,0,3.696-1.034,3.696-1.034l0.946,1.826s-2.2,1.848-5.016,1.848c-3.784,0-5.72-2.2-5.72-5.94c0-3.85,2.178-6.38,5.874-6.38c3.278,0,4.994,2.024,4.994,5.17c0,0.836-0.132,1.65-0.132,1.716z M116.36654,23.94l3.982,0c0-1.254-0.528-2.2-1.804-2.2c-1.232,0-2.002,0.902-2.178,2.2z M128.87376,27.35l0.176,1.43s0.77,0.22,1.848,0.22c1.21,0,1.804-0.374,1.804-1.078c0-1.804-5.874-1.144-5.874-5.06c0-2.75,2.2-3.762,4.532-3.762c1.98,0,4.092,0.66,4.092,0.66l-0.088,3.3l-1.87,0l-0.33-1.32s-0.638-0.22-1.518-0.22c-0.946,0-1.518,0.396-1.518,1.122c0,1.782,5.874,1.012,5.874,4.818c0,2.53-2.046,3.96-5.06,3.96c-2.09,0-4.048-0.484-4.048-0.484l0-3.586l1.98,0z M145.01098,19.1c3.564,0,5.544,2.156,5.544,5.94c0,3.96-2.31,6.38-5.874,6.38c-3.586,0-5.61-1.87-5.61-6.05c0-3.96,2.354-6.27,5.94-6.27z M144.90098,21.74c-1.606,0-2.42,0.88-2.42,3.52c0,2.42,0.704,3.52,2.31,3.52c1.584,0,2.354-0.99,2.354-3.63c0-2.244-0.66-3.41-2.244-3.41z M158.2442,19.32l0.198,1.518s1.584-1.738,3.058-1.738c1.21,0,2.046,0.396,2.046,0.396l-0.176,4.224l-1.98,0l-0.33-1.87c-1.276,0-2.376,1.232-2.376,1.232l0,5.808l2.2,0.55l0,1.76l-7.26,0l0-1.76l1.76-0.55l0-7.15l-1.76-0.55l0-1.76z M173.76542,28.384l0.792,1.672c-1.078,0.792-2.31,1.364-3.74,1.364c-2.53,0-3.256-1.76-3.256-4.29l0-5.06l-2.046,0l0-2.134l2.046-0.286l0-3.036l3.3-0.594l0,3.63l3.08,0l0,2.42l-3.08,0l0,4.84c0,1.408,0.242,1.98,1.166,1.98c0.594,0,1.452-0.352,1.738-0.506z"/><path fill="#" d=""/></svg>
